<svg width="13" height="15" viewBox="0 0 13 15" fill="none" xmlns="http://www.w3.org/2000/svg">
<path d="M10.8833 0.750122C11.6167 0.750122 12.2167 1.35012 12.2167 2.08346V3.55012C12.2167 4.08346 11.8833 4.75012 11.55 5.08346L8.68333 7.61679C8.28333 7.95012 8.01667 8.61679 8.01667 9.15012V12.0168C8.01667 12.4168 7.75 12.9501 7.41667 13.1501L6.48333 13.7501C5.61667 14.2835 4.41667 13.6835 4.41667 12.6168V9.08346C4.41667 8.61679 4.15 8.01679 3.88333 7.68346L1.35 5.01679C1.01667 4.68346 0.75 4.08346 0.75 3.68346V2.15012C0.75 1.35012 1.35 0.750122 2.08333 0.750122H8.08333M5.77 0.750122L2.48333 6.01679" stroke="white" stroke-width="1.5" stroke-miterlimit="10" stroke-linecap="round" stroke-linejoin="round"/>
</svg>
